<?xml version="1.0" standalone="no"?>
<!DOCTYPE svg PUBLIC "-//W3C//DTD SVG 20010904//EN"
 "http://www.w3.org/TR/2001/REC-SVG-20010904/DTD/svg10.dtd">
<svg version="1.0" xmlns="http://www.w3.org/2000/svg"
 width="1118.000000pt" height="420.000000pt" viewBox="0 0 1118.000000 420.000000"
 preserveAspectRatio="xMidYMid meet">

<g transform="translate(0.000000,420.000000) scale(0.100000,-0.100000)"
fill="#000000" stroke="none">
<path d="M1293 4046 c-83 -20 -159 -65 -222 -130 -100 -105 -136 -203 -128
-350 4 -80 26 -165 191 -730 l186 -638 -44 -49 c-56 -63 -91 -122 -124 -212
-25 -71 -26 -76 -30 -397 -4 -368 2 -432 54 -590 59 -177 143 -309 281 -441
146 -139 312 -228 513 -275 90 -22 507 -31 638 -14 477 60 875 413 989 877
l28 113 48 16 c68 23 159 109 185 177 12 28 60 178 107 333 92 306 101 363 69
457 -21 61 -93 141 -158 175 -42 22 -64 26 -131 27 -44 0 -90 -4 -101 -8 -19
-7 -22 -3 -29 30 -19 106 -104 212 -208 259 -51 23 -76 28 -143 29 l-81 0 22
70 c12 39 70 216 127 395 58 179 109 350 112 381 9 74 -14 183 -56 261 -92
174 -296 274 -485 239 -142 -26 -272 -118 -335 -236 -14 -27 -94 -273 -178
-545 -83 -272 -153 -502 -156 -510 -5 -13 -6 -13 -14 0 -5 9 -92 240 -195 515
-102 275 -198 521 -213 548 -34 63 -136 158 -204 190 -99 46 -211 58 -315 33z
m224 -206 c53 -23 95 -59 123 -105 10 -16 107 -266 215 -554 108 -288 202
-536 210 -550 35 -68 123 -111 197 -97 47 9 97 43 120 83 11 17 91 267 179
555 89 288 169 537 180 555 27 43 94 102 138 120 20 9 63 16 96 16 151 1 275
-118 275 -267 0 -49 -32 -157 -202 -680 -111 -341 -203 -632 -203 -646 -1 -14
-3 -31 -3 -38 -1 -8 -21 3 -48 27 -57 50 -130 85 -209 101 -42 8 -191 10 -500
8 -409 -4 -445 -6 -505 -25 -36 -11 -71 -22 -79 -24 -18 -5 -371 1202 -371
1272 0 96 52 186 137 235 82 49 162 53 250 14z m1796 -1334 c21 -8 48 -22 59
-33 29 -26 58 -87 58 -124 0 -26 -190 -670 -222 -751 -15 -40 -81 -96 -122
-104 -61 -11 -106 4 -152 50 -54 54 -65 102 -36 154 27 49 52 137 52 183 0 21
30 136 66 256 37 120 71 233 76 251 13 46 65 100 113 117 50 17 60 18 108 1z
m472 -310 c40 -17 75 -68 75 -111 0 -17 -41 -163 -90 -325 -100 -327 -111
-347 -187 -357 -71 -9 -143 50 -143 120 0 37 173 600 195 633 17 26 66 53 98
54 10 0 33 -6 52 -14z m-1185 -42 c86 -40 146 -122 157 -214 12 -101 -43 -203
-138 -255 l-54 -30 -362 -3 -363 -3 0 -93 0 -93 54 -6 c213 -22 310 -271 167
-430 -39 -44 -120 -87 -163 -87 l-28 0 0 -96 0 -97 60 6 c141 12 282 116 349
256 35 74 36 80 36 191 0 109 -2 119 -32 184 -18 37 -33 70 -33 72 0 2 73 4
163 4 145 0 169 3 232 25 63 22 71 22 80 8 57 -91 132 -152 218 -178 98 -29
222 -13 298 38 l34 23 60 -62 c33 -34 69 -66 79 -71 18 -10 18 -12 1 -84 -89
-364 -353 -632 -715 -726 -80 -21 -126 -26 -290 -30 -299 -8 -445 14 -605 94
-237 119 -394 315 -467 582 -19 67 -22 113 -26 375 -3 208 0 318 8 360 37 191
192 335 383 356 39 4 248 7 462 6 373 -1 392 -2 435 -22z"/>
<path d="M9050 3328 c-359 -27 -636 -267 -745 -643 -48 -168 -58 -271 -52
-580 5 -290 12 -344 57 -489 127 -406 462 -644 875 -623 182 10 313 53 448
146 87 61 140 114 200 203 80 118 131 241 162 393 38 188 44 595 10 801 -44
274 -168 494 -362 643 -53 40 -192 106 -269 126 -79 21 -220 31 -324 23z m305
-192 c240 -76 400 -284 461 -596 15 -79 18 -143 18 -385 0 -262 -3 -300 -23
-395 -57 -268 -185 -452 -376 -541 -101 -47 -168 -60 -297 -60 -195 0 -332 54
-458 181 -123 123 -195 276 -225 477 -20 133 -20 552 0 683 54 358 242 589
531 654 102 23 265 15 369 -18z"/>
<path d="M5730 2466 c0 -688 -3 -848 -15 -910 -50 -264 -257 -422 -524 -402
-148 11 -252 50 -327 125 -75 74 -108 151 -126 288 l-11 83 -93 0 -93 0 5 -67
c29 -341 218 -538 559 -584 406 -54 721 149 796 514 18 86 19 146 19 940 l0
847 -95 0 -95 0 0 -834z"/>
<path d="M6420 2160 l0 -1140 95 0 95 0 0 408 0 407 159 159 c127 127 163 157
173 148 8 -6 218 -261 468 -566 l455 -556 113 0 c61 0 112 2 112 5 0 3 -230
287 -510 632 -281 345 -509 630 -508 634 2 4 210 226 463 495 253 268 464 493
468 501 6 10 -14 13 -110 12 l-118 -1 -575 -608 c-316 -335 -578 -609 -582
-609 -5 -1 -8 274 -8 609 l0 610 -95 0 -95 0 0 -1140z"/>
</g>
</svg>
