<?xml version="1.0" standalone="no"?>
<!DOCTYPE svg PUBLIC "-//W3C//DTD SVG 20010904//EN"
 "http://www.w3.org/TR/2001/REC-SVG-20010904/DTD/svg10.dtd">
<svg version="1.0" xmlns="http://www.w3.org/2000/svg"
 width="974.000000pt" height="350.000000pt" viewBox="0 0 974.000000 350.000000"
 preserveAspectRatio="xMidYMid meet">

<g transform="translate(0.000000,350.000000) scale(0.100000,-0.100000)"
fill="#000000" stroke="none">
<path d="M1055 3387 c-185 -62 -295 -208 -295 -392 0 -63 19 -137 155 -606
l154 -534 -19 -25 c-57 -73 -83 -116 -108 -177 l-27 -68 0 -325 c0 -278 3
-334 17 -386 80 -278 251 -485 499 -604 143 -68 214 -82 452 -87 134 -4 236
-1 289 7 400 58 729 351 822 732 21 86 21 87 61 102 55 21 110 69 139 119 13
23 59 157 102 297 88 289 94 338 53 425 -50 106 -130 157 -254 163 l-81 4 -17
48 c-37 104 -152 193 -269 206 -32 4 -58 9 -58 11 0 3 43 136 96 296 83 253
97 304 101 378 4 66 1 100 -12 140 -37 116 -111 199 -224 253 -60 28 -75 31
-166 31 -96 0 -104 -2 -177 -37 -80 -40 -137 -93 -180 -169 -14 -24 -79 -218
-144 -431 -66 -213 -122 -384 -125 -380 -4 4 -71 178 -149 387 -78 209 -153
402 -168 428 -37 69 -129 151 -199 178 -71 27 -209 35 -268 16z m159 -198 c50
-12 110 -58 131 -98 8 -16 82 -210 165 -432 188 -501 187 -500 240 -535 83
-55 202 -26 246 58 10 18 75 220 145 448 148 483 135 446 166 488 35 47 91 72
161 72 51 0 67 -5 108 -32 28 -19 56 -50 68 -73 39 -76 33 -106 -147 -653 -91
-277 -167 -505 -170 -508 -2 -3 -26 9 -53 25 -95 59 -134 63 -547 59 -312 -4
-380 -7 -422 -21 -27 -9 -51 -14 -54 -12 -2 3 -67 220 -143 482 -154 527 -159
558 -118 632 29 50 59 76 116 96 48 17 55 18 108 4z m1562 -1143 c27 -27 34
-42 34 -72 0 -50 -175 -621 -198 -647 -44 -50 -120 -55 -166 -12 -37 34 -42
68 -17 124 11 26 26 81 32 122 15 96 126 458 147 483 23 25 49 35 96 35 30 1
45 -6 72 -33z m347 -227 c24 -11 47 -47 47 -72 0 -7 -34 -122 -75 -257 -79
-260 -90 -280 -147 -280 -36 0 -78 40 -78 75 0 25 134 474 152 508 17 32 62
44 101 26z m-978 -38 c116 -52 149 -195 68 -291 -59 -69 -66 -70 -391 -70
l-289 0 -7 -61 c-3 -34 -6 -81 -6 -104 l0 -42 50 -5 c57 -6 106 -36 141 -86
34 -51 34 -153 0 -204 -31 -45 -79 -77 -125 -85 l-36 -6 0 -104 0 -104 48 7
c152 22 268 114 325 258 29 71 28 201 0 272 l-20 52 131 4 c90 3 143 9 168 21
l37 16 22 -35 c28 -47 99 -99 161 -120 67 -22 176 -15 237 14 l44 22 46 -42
c25 -22 50 -44 54 -48 5 -4 1 -36 -8 -71 -73 -280 -308 -504 -593 -564 -93
-20 -442 -20 -537 0 -99 20 -240 94 -319 166 -106 98 -185 234 -218 376 -9 40
-13 139 -13 323 l0 265 28 60 c30 64 81 123 135 157 71 44 99 47 472 47 324 1
359 -1 395 -18z"/>
<path d="M7885 2905 c-385 -70 -651 -369 -730 -820 -52 -298 -13 -644 99 -881
126 -266 320 -431 584 -496 121 -30 323 -29 437 1 346 92 578 359 667 766 25
116 36 421 19 548 -42 314 -176 573 -374 723 -187 142 -460 204 -702 159z
m366 -258 c230 -88 374 -292 424 -601 20 -126 20 -363 0 -481 -20 -113 -72
-267 -116 -342 -50 -85 -171 -203 -247 -241 -221 -109 -486 -68 -657 103 -106
106 -175 244 -216 435 -19 88 -23 135 -23 290 1 207 17 311 74 458 78 204 232
350 416 397 92 23 261 14 345 -18z"/>
<path d="M4680 2088 c-1 -838 -3 -889 -47 -990 -41 -92 -108 -145 -211 -167
-183 -39 -333 30 -452 207 l-15 22 -92 -66 c-51 -36 -93 -71 -93 -77 0 -20 97
-142 142 -179 112 -91 201 -129 352 -149 208 -27 382 24 505 148 75 75 119
154 154 274 20 73 21 91 24 922 l4 847 -136 0 -135 0 0 -792z"/>
<path d="M5470 1800 l0 -1080 140 0 140 0 0 343 0 342 180 215 c100 118 184
216 188 217 4 1 151 -250 327 -557 l320 -560 153 0 154 0 -20 33 c-11 17 -178
304 -372 637 -194 333 -361 619 -371 636 l-19 31 329 400 c180 220 331 406
335 412 5 8 -34 11 -144 11 l-150 0 -448 -539 c-246 -297 -450 -540 -454 -540
-5 -1 -8 242 -8 539 l0 540 -140 0 -140 0 0 -1080z"/>
</g>
</svg>
