<svg xmlns="http://www.w3.org/2000/svg" width="105.6" height="151.8" viewBox="-252 321.2 105.6 151.8"><path d="M-235.3 469.7c.7.5 1.6.9 2.5 1.2 1 .3 2 .5 3.1.5 1.9 0 3.5-.5 4.6-1.5 1.1-1 1.7-2.3 1.7-4 0-1.5-.4-2.7-1.2-3.6-.8-.9-2.1-1.8-4-2.5-2-.7-3.6-1.7-4.8-2.8-1.2-1.1-1.8-2.6-1.8-4.4 0-1 .2-1.9.6-2.7.4-.8.9-1.5 1.6-2.1.7-.6 1.5-1 2.4-1.4.9-.3 1.9-.5 3-.5 1.2 0 2.3.1 3.2.4.9.3 1.5.5 1.9.8l-.7 1.6c-.4-.3-.9-.5-1.7-.8-.8-.3-1.7-.4-2.8-.4-1 0-1.9.1-2.6.4-.7.3-1.3.7-1.7 1.2-.4.5-.7 1-.9 1.5-.2.6-.3 1.1-.3 1.6 0 1.5.4 2.6 1.3 3.5.9.9 2.2 1.7 4.1 2.4 1.1.4 2 .9 2.8 1.4.8.5 1.5 1 2 1.6.5.6 1 1.3 1.2 2 .3.8.4 1.6.4 2.6s-.2 1.9-.5 2.8c-.3.9-.9 1.6-1.5 2.3-.7.7-1.6 1.2-2.6 1.6-1 .4-2.2.6-3.6.6-.5 0-1.1 0-1.7-.1-.6-.1-1.2-.2-1.7-.4s-1.1-.3-1.5-.5c-.5-.2-.9-.4-1.2-.7l.4-1.6zM-218.2 453.9l3.1 10.6c.3 1.1.6 2.1.9 3.1.3 1 .5 1.9.7 2.8h.1c.2-.9.5-1.8.8-2.8.3-1 .6-2 1-3.1l3.7-10.6h1.7l3.5 10.5c.4 1.1.7 2.2 1 3.2.3 1 .6 1.9.8 2.8h.1c.2-.9.4-1.8.7-2.8.3-.9.6-2 1-3.2l3.3-10.6h1.9l-6.1 18.7h-1.6l-3.5-10.5c-.4-1.1-.7-2.2-1.1-3.2-.3-1-.6-2-.8-3.1h-.1c-.3 1.1-.6 2.2-.9 3.2-.3 1-.7 2.1-1.1 3.2l-3.7 10.4h-1.6l-5.7-18.7h1.9zM-190.9 448.2c0-.4.1-.8.4-1.1.3-.3.7-.5 1.1-.5s.8.2 1.1.5c.3.3.5.7.5 1.1 0 .4-.2.8-.5 1.1-.3.3-.7.4-1.1.4-.4 0-.8-.1-1.1-.4-.2-.3-.4-.7-.4-1.1zm.7 24.4v-18.7h1.8v18.7h-1.8zM-180.9 472.6v-17.2h-2.7V454h2.7v-1.1c0-1.2.1-2.3.3-3.3.2-1 .6-1.9 1-2.6.5-.7 1.1-1.3 1.9-1.8.8-.4 1.7-.6 2.9-.6.6 0 1.1.1 1.6.2s.8.3 1.1.5l-.6 1.4c-.3-.1-.6-.2-.9-.4-.4-.1-.8-.2-1.4-.2-.9 0-1.6.2-2.1.5-.5.4-.9.9-1.2 1.5-.3.6-.5 1.3-.6 2.1-.1.8-.2 1.7-.2 2.6v1.1h8.9v1.4h-8.9v17.2l-1.8.1z"/><path d="M-168.9 449.8v4.2h5.2v1.4h-5.2v12.2c0 1.2.2 2.2.6 2.9.4.7 1.1 1 2.1 1 .5 0 .9 0 1.2-.1.3-.1.6-.1.9-.2l.2 1.4c-.6.3-1.5.4-2.5.4-.9 0-1.6-.1-2.1-.4-.6-.3-1-.7-1.3-1.2-.3-.5-.5-1.1-.7-1.8-.1-.7-.2-1.5-.2-2.3v-11.9h.1V454h-.1v-3.5l1.8-.7z"/><g><path fill="#F05138" d="M-146.4 350.4v-3.2c-.1-2.3-.2-4.6-.6-6.9-.4-2.3-1.1-4.5-2.2-6.6-1.1-2.1-2.4-4-4.1-5.6-1.6-1.6-3.5-3-5.6-4.1-2.1-1.1-4.3-1.8-6.6-2.2-2.3-.4-4.6-.5-6.9-.6H-226c-.6 0-1.2 0-1.7.1-1.7.1-3.5.2-5.2.5-1.7.3-3.4.8-5 1.4-.5.2-1.1.5-1.6.7-1.6.8-3 1.8-4.3 2.9-.4.4-.9.8-1.3 1.2-1.6 1.6-3 3.5-4.1 5.6-1.1 2.1-1.8 4.3-2.2 6.6-.4 2.3-.5 4.6-.6 6.9v53.5c.1 2.3.2 4.6.6 6.9.4 2.3 1.1 4.5 2.2 6.6 1.1 2.1 2.4 4 4.1 5.6 1.6 1.6 3.5 3 5.6 4.1 2.1 1.1 4.3 1.8 6.6 2.2 2.3.4 4.6.5 6.9.6h53.5c2.3-.1 4.6-.2 6.9-.6 2.3-.4 4.5-1.1 6.6-2.2 2.1-1.1 4-2.4 5.6-4.1 1.6-1.6 3-3.5 4.1-5.6 1.1-2.1 1.8-4.3 2.2-6.6.4-2.3.5-4.6.6-6.9v-3.2-43.3c.1-1.1.1-2.4.1-3.7z"/><path fill="#FFF" d="M-168.3 386.4l.3-1.2c4.4-17.5-6.3-38.1-24.4-49 7.9 10.8 11.4 23.8 8.3 35.2-.3 1-.6 2-1 2.9-.4-.3-.9-.6-1.6-.9 0 0-18-11.1-37.5-30.8-.5-.5 10.4 15.6 22.8 28.7-5.8-3.3-22.1-15.1-32.4-24.5 1.3 2.1 2.8 4.1 4.4 6.1 8.6 10.9 19.8 24.4 33.2 34.7-9.4 5.8-22.8 6.2-36.1 0-3.3-1.5-6.4-3.4-9.2-5.5 5.6 9 14.3 16.8 24.8 21.3 12.6 5.4 25.1 5 34.4.1 0 0 .1 0 .1-.1.4-.2.8-.5 1.2-.7 4.5-2.3 13.3-4.6 18 4.6 1.3 2.2 3.7-9.8-5.3-20.9z"/></g></svg>